<svg width="34" height="34" viewBox="0 0 34 34" fill="none" xmlns="http://www.w3.org/2000/svg">
<path d="M22.0997 17C22.0997 18.3526 21.5624 19.6498 20.6059 20.6063C19.6495 21.5627 18.3523 22.1 16.9997 22.1C15.6471 22.1 14.3499 21.5627 13.3934 20.6063C12.437 19.6498 11.8997 18.3526 11.8997 17C11.8997 16.7093 11.9303 16.4254 11.983 16.15H10.1997V22.9449C10.1997 23.4175 10.5822 23.8 11.0548 23.8H22.9463C23.1728 23.7996 23.3898 23.7093 23.5498 23.549C23.7098 23.3887 23.7997 23.1714 23.7997 22.9449V16.15H22.0164C22.0691 16.4254 22.0997 16.7093 22.0997 17ZM16.9997 20.4C17.4463 20.3999 17.8885 20.3118 18.3011 20.1408C18.7136 19.9698 19.0885 19.7192 19.4042 19.4033C19.7199 19.0875 19.9703 18.7125 20.1411 18.2998C20.3119 17.8872 20.3998 17.4449 20.3997 16.9983C20.3996 16.5517 20.3115 16.1095 20.1405 15.6969C19.9695 15.2844 19.7189 14.9095 19.403 14.5938C19.0871 14.2781 18.7122 14.0277 18.2995 13.8569C17.8868 13.6861 17.4446 13.5982 16.998 13.5983C16.096 13.5985 15.2311 13.9571 14.5935 14.595C13.9558 15.233 13.5978 16.0981 13.598 17C13.5982 17.902 13.9567 18.7669 14.5947 19.4045C15.2326 20.0422 16.0977 20.4002 16.9997 20.4ZM21.0797 13.43H23.118C23.2534 13.43 23.3833 13.3763 23.4792 13.2808C23.5751 13.1852 23.6292 13.0554 23.6297 12.92V10.8817C23.6297 10.746 23.5758 10.6159 23.4798 10.5199C23.3839 10.4239 23.2537 10.37 23.118 10.37H21.0797C20.944 10.37 20.8138 10.4239 20.7179 10.5199C20.6219 10.6159 20.568 10.746 20.568 10.8817V12.92C20.5697 13.2005 20.7992 13.43 21.0797 13.43ZM16.9997 0.680023C12.6714 0.680023 8.5203 2.39945 5.4597 5.46004C2.39911 8.52063 0.679688 12.6717 0.679688 17C0.679688 21.3284 2.39911 25.4794 5.4597 28.54C8.5203 31.6006 12.6714 33.32 16.9997 33.32C19.1429 33.32 21.265 32.8979 23.2451 32.0777C25.2251 31.2576 27.0242 30.0555 28.5397 28.54C30.0551 27.0246 31.2572 25.2255 32.0774 23.2454C32.8976 21.2654 33.3197 19.1432 33.3197 17C33.3197 14.8569 32.8976 12.7347 32.0774 10.7546C31.2572 8.7746 30.0551 6.97549 28.5397 5.46004C27.0242 3.94459 25.2251 2.74247 23.2451 1.92231C21.265 1.10215 19.1429 0.680023 16.9997 0.680023ZM25.4997 23.6113C25.4997 24.65 24.6497 25.5 23.611 25.5H10.3884C9.34969 25.5 8.49969 24.65 8.49969 23.6113V10.3887C8.49969 9.35002 9.34969 8.50002 10.3884 8.50002H23.611C24.6497 8.50002 25.4997 9.35002 25.4997 10.3887V23.6113Z" fill="#EF085B"/>
</svg>
