<svg width="150" height="49" viewBox="0 0 150 49" fill="none" xmlns="http://www.w3.org/2000/svg">
<path d="M48.8524 0H0V48.8524H48.8524V0Z" fill="#ED1C24"/>
<path d="M33.9886 17.6498L33.8721 17.6304L26.2996 38.5614H22.494L14.9604 17.7081L14.8438 17.7275L15.3875 30.1346V34.581L18.4164 35.1635V38.5614H6.7085V35.1635L9.71802 34.581V14.2908L6.7085 13.7083V10.291H9.71802H17.1157L24.3192 31.1249H24.4357L31.6975 10.291H42.1436V13.7083L39.1146 14.2908V34.581L42.1436 35.1635V38.5614H30.4355V35.1635L33.445 34.581V30.1346L33.9886 17.6498Z" fill="white"/>
<path d="M99.5182 0H50.6665V48.8524H99.5182V0Z" fill="#EFD712"/>
<path d="M76.5878 10.291C79.8237 10.291 82.377 11.1228 84.2476 12.786C86.118 14.4494 87.0533 16.6273 87.0533 19.3196C87.0533 22.0252 86.118 24.1998 84.2476 25.8435C82.377 27.4875 79.8237 28.3094 76.5878 28.3094H71.8114V34.5809L74.8403 35.1634V38.5613H63.1323V35.1634L66.1418 34.5809V14.2907L63.1323 13.7082V10.2909H66.1418H76.5878V10.291ZM71.8115 23.9408H76.5879C78.167 23.9408 79.3612 23.5105 80.1703 22.6496C80.9791 21.7889 81.3838 20.6918 81.3838 19.3585C81.3838 17.9993 80.9792 16.8765 80.1703 15.9897C79.3612 15.1032 78.167 14.6597 76.5879 14.6597H71.8115V23.9408Z" fill="white"/>
<path d="M150 0H101.147V48.8524H150V0Z" fill="#229F48"/>
<path d="M135.71 19.3099H131.458L130.72 15.4266C130.228 15.1159 129.509 14.8441 128.564 14.6111C127.619 14.3782 126.616 14.2616 125.555 14.2616C124.002 14.2616 122.801 14.5887 121.953 15.2421C121.105 15.8959 120.681 16.7405 120.681 17.7759C120.681 18.734 121.125 19.5204 122.011 20.1351C122.898 20.75 124.429 21.4004 126.604 22.0864C129.723 22.9538 132.089 24.0993 133.7 25.5231C135.312 26.9472 136.118 28.8175 136.118 31.1345C136.118 33.5552 135.16 35.4643 133.244 36.8624C131.328 38.2604 128.804 38.9593 125.672 38.9593C123.432 38.9593 121.41 38.6032 119.604 37.8914C117.798 37.1796 116.293 36.1958 115.09 34.94V29.0374H119.478L120.08 33.0566C120.649 33.5227 121.422 33.9079 122.4 34.2119C123.377 34.5162 124.468 34.6682 125.672 34.6682C127.225 34.6682 128.406 34.3512 129.215 33.7168C130.024 33.0827 130.429 32.2347 130.429 31.1732C130.429 30.0859 130.043 29.2121 129.273 28.552C128.503 27.8918 127.154 27.2705 125.225 26.688C121.872 25.7171 119.335 24.5652 117.614 23.2318C115.892 21.8988 115.031 20.0736 115.031 17.7564C115.031 15.4653 116.002 13.5916 117.944 12.1354C119.885 10.6792 122.325 9.93167 125.264 9.89282C127.438 9.89282 129.419 10.2229 131.205 10.8831C132.991 11.5433 134.493 12.4236 135.71 13.5238V19.3099H135.71Z" fill="white"/>
</svg>
