<svg width="250" height="144" viewBox="0 0 250 144" fill="none" xmlns="http://www.w3.org/2000/svg">
<path d="M88.011 30.5518H18.9062V99.6566H88.011V30.5518Z" fill="#ED1C24"/>
<path d="M66.9855 55.5186L66.8207 55.4911L56.1089 85.0993H50.7256L40.0688 55.601L39.904 55.6285L40.673 73.1792V79.4689L44.9576 80.2928V85.0993H28.396V80.2928L32.6532 79.4689V50.7671L28.396 49.9431V45.1091H32.6532H43.1177L53.3075 74.5799H53.4723L63.7446 45.1091H78.5212V49.9431L74.2365 50.7671V79.4689L78.5212 80.2928V85.0993H61.9593V80.2928L66.2165 79.4689V73.1792L66.9855 55.5186Z" fill="white"/>
<path d="M159.681 30.5518H90.5773V99.6566H159.681V30.5518Z" fill="#EFD712"/>
<path d="M127.244 45.1091C131.821 45.1091 135.433 46.2858 138.079 48.6384C140.725 50.9914 142.048 54.0723 142.048 57.8806C142.048 61.7078 140.725 64.784 138.079 67.1091C135.433 69.4346 131.821 70.5973 127.244 70.5973H120.487V79.4688L124.772 80.2927V85.0992H108.21V80.2927L112.467 79.4688V50.7669L108.21 49.943V45.109H112.467H127.244V45.1091ZM120.487 64.4176H127.244C129.478 64.4176 131.167 63.809 132.311 62.5911C133.456 61.3736 134.028 59.8217 134.028 57.9357C134.028 56.013 133.456 54.4247 132.311 53.1703C131.167 51.9163 129.478 51.2889 127.244 51.2889H120.487V64.4176Z" fill="white"/>
<path d="M231.091 30.5518H161.987V99.6566H231.091V30.5518Z" fill="#229F48"/>
<path d="M210.876 57.8669H204.861L203.817 52.3737C203.121 51.9342 202.105 51.5497 200.769 51.2202C199.432 50.8906 198.013 50.7258 196.512 50.7258C194.314 50.7258 192.616 51.1884 191.417 52.1128C190.217 53.0376 189.618 54.2323 189.618 55.697C189.618 57.0522 190.245 58.1646 191.499 59.0341C192.753 59.904 194.919 60.8241 197.995 61.7944C202.407 63.0214 205.754 64.6418 208.034 66.6559C210.313 68.6703 211.453 71.316 211.453 74.5935C211.453 78.0177 210.098 80.7184 207.388 82.696C204.678 84.6736 201.107 85.6622 196.676 85.6622C193.508 85.6622 190.648 85.1585 188.093 84.1516C185.539 83.1447 183.41 81.753 181.707 79.9767V71.6271H187.915L188.766 77.3125C189.572 77.9717 190.666 78.5167 192.048 78.9467C193.431 79.3772 194.973 79.5922 196.676 79.5922C198.874 79.5922 200.544 79.1437 201.689 78.2464C202.833 77.3493 203.406 76.1499 203.406 74.6483C203.406 73.1102 202.86 71.8742 201.771 70.9404C200.682 70.0065 198.773 69.1276 196.045 68.3036C191.302 66.9303 187.713 65.3008 185.278 63.4147C182.843 61.529 181.625 58.9471 181.625 55.6694C181.625 52.4284 182.998 49.778 185.745 47.7181C188.492 45.6582 191.943 44.6008 196.1 44.5458C199.176 44.5458 201.977 45.0128 204.504 45.9466C207.031 46.8805 209.155 48.1258 210.876 49.682V57.8669H210.876Z" fill="white"/>
<path d="M24.3555 117.203L28.0469 127.012L31.7295 117.203H34.6035V130H32.3887V125.781L32.6084 120.139L28.8291 130H27.2383L23.4678 120.147L23.6875 125.781V130H21.4727V117.203H24.3555ZM40.3604 126.941L42.2939 120.49H44.5703L40.791 131.441C40.2109 133.041 39.2266 133.841 37.8379 133.841C37.5273 133.841 37.1846 133.788 36.8096 133.683V132.03L37.2139 132.057C37.7529 132.057 38.1572 131.957 38.4268 131.758C38.7021 131.564 38.9189 131.236 39.0771 130.773L39.3848 129.956L36.0449 120.49H38.3477L40.3604 126.941ZM51.3467 130C51.2529 129.818 51.1709 129.522 51.1006 129.112C50.4209 129.821 49.5889 130.176 48.6045 130.176C47.6494 130.176 46.8701 129.903 46.2666 129.358C45.6631 128.813 45.3613 128.14 45.3613 127.337C45.3613 126.323 45.7363 125.547 46.4863 125.008C47.2422 124.463 48.3203 124.19 49.7207 124.19H51.0303V123.566C51.0303 123.074 50.8926 122.682 50.6172 122.389C50.3418 122.09 49.9229 121.94 49.3604 121.94C48.874 121.94 48.4756 122.063 48.165 122.31C47.8545 122.55 47.6992 122.857 47.6992 123.232H45.5635C45.5635 122.711 45.7363 122.225 46.082 121.773C46.4277 121.316 46.8965 120.959 47.4883 120.701C48.0859 120.443 48.751 120.314 49.4834 120.314C50.5967 120.314 51.4844 120.596 52.1465 121.158C52.8086 121.715 53.1484 122.5 53.166 123.514V127.803C53.166 128.658 53.2861 129.341 53.5264 129.851V130H51.3467ZM49 128.462C49.4219 128.462 49.8174 128.359 50.1865 128.154C50.5615 127.949 50.8428 127.674 51.0303 127.328V125.535H49.8789C49.0879 125.535 48.4932 125.673 48.0947 125.948C47.6963 126.224 47.4971 126.613 47.4971 127.117C47.4971 127.527 47.6318 127.855 47.9014 128.102C48.1768 128.342 48.543 128.462 49 128.462ZM57.3848 120.49L57.4463 121.589C58.1494 120.739 59.0723 120.314 60.2148 120.314C62.1953 120.314 63.2031 121.448 63.2383 123.716V130H61.1025V123.839C61.1025 123.235 60.9707 122.79 60.707 122.503C60.4492 122.21 60.0244 122.063 59.4326 122.063C58.5713 122.063 57.9297 122.453 57.5078 123.232V130H55.3721V120.49H57.3848ZM67.4307 120.49L67.4922 121.483C68.1602 120.704 69.0742 120.314 70.2344 120.314C71.5059 120.314 72.376 120.801 72.8447 121.773C73.5361 120.801 74.5088 120.314 75.7627 120.314C76.8115 120.314 77.5908 120.604 78.1006 121.185C78.6162 121.765 78.8799 122.62 78.8916 123.751V130H76.7559V123.812C76.7559 123.209 76.624 122.767 76.3604 122.485C76.0967 122.204 75.6602 122.063 75.0508 122.063C74.5645 122.063 74.166 122.195 73.8555 122.459C73.5508 122.717 73.3369 123.057 73.2139 123.479L73.2227 130H71.0869V123.742C71.0576 122.623 70.4863 122.063 69.373 122.063C68.5176 122.063 67.9111 122.412 67.5537 123.109V130H65.418V120.49H67.4307ZM86.7666 130C86.6729 129.818 86.5908 129.522 86.5205 129.112C85.8408 129.821 85.0088 130.176 84.0244 130.176C83.0693 130.176 82.29 129.903 81.6865 129.358C81.083 128.813 80.7812 128.14 80.7812 127.337C80.7812 126.323 81.1562 125.547 81.9062 125.008C82.6621 124.463 83.7402 124.19 85.1406 124.19H86.4502V123.566C86.4502 123.074 86.3125 122.682 86.0371 122.389C85.7617 122.09 85.3428 121.94 84.7803 121.94C84.2939 121.94 83.8955 122.063 83.585 122.31C83.2744 122.55 83.1191 122.857 83.1191 123.232H80.9834C80.9834 122.711 81.1562 122.225 81.502 121.773C81.8477 121.316 82.3164 120.959 82.9082 120.701C83.5059 120.443 84.1709 120.314 84.9033 120.314C86.0166 120.314 86.9043 120.596 87.5664 121.158C88.2285 121.715 88.5684 122.5 88.5859 123.514V127.803C88.5859 128.658 88.7061 129.341 88.9463 129.851V130H86.7666ZM84.4199 128.462C84.8418 128.462 85.2373 128.359 85.6064 128.154C85.9814 127.949 86.2627 127.674 86.4502 127.328V125.535H85.2988C84.5078 125.535 83.9131 125.673 83.5146 125.948C83.1162 126.224 82.917 126.613 82.917 127.117C82.917 127.527 83.0518 127.855 83.3213 128.102C83.5967 128.342 83.9629 128.462 84.4199 128.462ZM95.8018 122.441C95.5205 122.395 95.2305 122.371 94.9316 122.371C93.9531 122.371 93.2939 122.746 92.9541 123.496V130H90.8184V120.49H92.8574L92.9102 121.554C93.4258 120.728 94.1406 120.314 95.0547 120.314C95.3594 120.314 95.6113 120.355 95.8105 120.438L95.8018 122.441ZM104.063 125.245V130H101.84V117.203H106.735C108.165 117.203 109.299 117.575 110.137 118.319C110.98 119.063 111.402 120.048 111.402 121.272C111.402 122.526 110.989 123.502 110.163 124.199C109.343 124.896 108.191 125.245 106.709 125.245H104.063ZM104.063 123.461H106.735C107.526 123.461 108.13 123.276 108.546 122.907C108.962 122.532 109.17 121.993 109.17 121.29C109.17 120.599 108.959 120.048 108.537 119.638C108.115 119.222 107.535 119.008 106.797 118.996H104.063V123.461ZM112.624 125.157C112.624 124.226 112.809 123.388 113.178 122.644C113.547 121.894 114.065 121.319 114.733 120.921C115.401 120.517 116.169 120.314 117.036 120.314C118.319 120.314 119.359 120.728 120.156 121.554C120.959 122.38 121.393 123.476 121.457 124.841L121.466 125.342C121.466 126.279 121.284 127.117 120.921 127.855C120.563 128.594 120.048 129.165 119.374 129.569C118.706 129.974 117.933 130.176 117.054 130.176C115.712 130.176 114.637 129.73 113.828 128.84C113.025 127.943 112.624 126.751 112.624 125.263V125.157ZM114.76 125.342C114.76 126.32 114.962 127.088 115.366 127.645C115.771 128.195 116.333 128.471 117.054 128.471C117.774 128.471 118.334 128.189 118.732 127.627C119.137 127.064 119.339 126.241 119.339 125.157C119.339 124.196 119.131 123.435 118.715 122.872C118.305 122.31 117.745 122.028 117.036 122.028C116.339 122.028 115.785 122.307 115.375 122.863C114.965 123.414 114.76 124.24 114.76 125.342ZM125.544 130H123.408V116.5H125.544V130ZM130.149 130H128.014V120.49H130.149V130ZM127.882 118.021C127.882 117.692 127.984 117.42 128.189 117.203C128.4 116.986 128.699 116.878 129.086 116.878C129.473 116.878 129.771 116.986 129.982 117.203C130.193 117.42 130.299 117.692 130.299 118.021C130.299 118.343 130.193 118.612 129.982 118.829C129.771 119.04 129.473 119.146 129.086 119.146C128.699 119.146 128.4 119.04 128.189 118.829C127.984 118.612 127.882 118.343 127.882 118.021ZM135.159 118.179V120.49H136.838V122.072H135.159V127.381C135.159 127.744 135.229 128.008 135.37 128.172C135.517 128.33 135.774 128.409 136.144 128.409C136.39 128.409 136.639 128.38 136.891 128.321V129.974C136.404 130.108 135.936 130.176 135.484 130.176C133.844 130.176 133.023 129.271 133.023 127.46V122.072H131.459V120.49H133.023V118.179H135.159ZM140.749 130H138.613V120.49H140.749V130ZM138.481 118.021C138.481 117.692 138.584 117.42 138.789 117.203C139 116.986 139.299 116.878 139.686 116.878C140.072 116.878 140.371 116.986 140.582 117.203C140.793 117.42 140.898 117.692 140.898 118.021C140.898 118.343 140.793 118.612 140.582 118.829C140.371 119.04 140.072 119.146 139.686 119.146C139.299 119.146 139 119.04 138.789 118.829C138.584 118.612 138.481 118.343 138.481 118.021ZM146.989 128.471C147.522 128.471 147.965 128.315 148.316 128.005C148.668 127.694 148.855 127.311 148.879 126.854H150.892C150.868 127.445 150.684 127.999 150.338 128.515C149.992 129.024 149.523 129.429 148.932 129.728C148.34 130.026 147.701 130.176 147.016 130.176C145.686 130.176 144.631 129.745 143.852 128.884C143.072 128.022 142.683 126.833 142.683 125.315V125.096C142.683 123.648 143.069 122.491 143.843 121.624C144.616 120.751 145.671 120.314 147.007 120.314C148.138 120.314 149.058 120.646 149.767 121.308C150.481 121.964 150.856 122.828 150.892 123.9H148.879C148.855 123.355 148.668 122.907 148.316 122.556C147.971 122.204 147.528 122.028 146.989 122.028C146.298 122.028 145.765 122.28 145.39 122.784C145.015 123.282 144.824 124.041 144.818 125.061V125.403C144.818 126.435 145.003 127.205 145.372 127.715C145.747 128.219 146.286 128.471 146.989 128.471ZM158.187 130C158.093 129.818 158.011 129.522 157.94 129.112C157.261 129.821 156.429 130.176 155.444 130.176C154.489 130.176 153.71 129.903 153.106 129.358C152.503 128.813 152.201 128.14 152.201 127.337C152.201 126.323 152.576 125.547 153.326 125.008C154.082 124.463 155.16 124.19 156.561 124.19H157.87V123.566C157.87 123.074 157.732 122.682 157.457 122.389C157.182 122.09 156.763 121.94 156.2 121.94C155.714 121.94 155.315 122.063 155.005 122.31C154.694 122.55 154.539 122.857 154.539 123.232H152.403C152.403 122.711 152.576 122.225 152.922 121.773C153.268 121.316 153.736 120.959 154.328 120.701C154.926 120.443 155.591 120.314 156.323 120.314C157.437 120.314 158.324 120.596 158.986 121.158C159.648 121.715 159.988 122.5 160.006 123.514V127.803C160.006 128.658 160.126 129.341 160.366 129.851V130H158.187ZM155.84 128.462C156.262 128.462 156.657 128.359 157.026 128.154C157.401 127.949 157.683 127.674 157.87 127.328V125.535H156.719C155.928 125.535 155.333 125.673 154.935 125.948C154.536 126.224 154.337 126.613 154.337 127.117C154.337 127.527 154.472 127.855 154.741 128.102C155.017 128.342 155.383 128.462 155.84 128.462ZM164.515 130H162.379V116.5H164.515V130ZM178.226 126.704C178.226 126.142 178.026 125.708 177.628 125.403C177.235 125.099 176.523 124.791 175.492 124.48C174.461 124.17 173.641 123.824 173.031 123.443C171.865 122.711 171.282 121.756 171.282 120.578C171.282 119.547 171.701 118.697 172.539 118.029C173.383 117.361 174.476 117.027 175.817 117.027C176.708 117.027 177.502 117.191 178.199 117.52C178.896 117.848 179.444 118.316 179.843 118.926C180.241 119.529 180.44 120.2 180.44 120.938H178.226C178.226 120.271 178.015 119.749 177.593 119.374C177.177 118.993 176.579 118.803 175.8 118.803C175.073 118.803 174.508 118.958 174.104 119.269C173.705 119.579 173.506 120.013 173.506 120.569C173.506 121.038 173.723 121.431 174.156 121.747C174.59 122.058 175.305 122.362 176.301 122.661C177.297 122.954 178.097 123.291 178.7 123.672C179.304 124.047 179.746 124.48 180.027 124.973C180.309 125.459 180.449 126.03 180.449 126.687C180.449 127.753 180.039 128.603 179.219 129.235C178.404 129.862 177.297 130.176 175.896 130.176C174.971 130.176 174.118 130.006 173.339 129.666C172.565 129.32 171.962 128.846 171.528 128.242C171.101 127.639 170.887 126.936 170.887 126.133H173.11C173.11 126.859 173.351 127.422 173.831 127.82C174.312 128.219 175 128.418 175.896 128.418C176.67 128.418 177.25 128.263 177.637 127.952C178.029 127.636 178.226 127.22 178.226 126.704ZM184.87 118.179V120.49H186.549V122.072H184.87V127.381C184.87 127.744 184.94 128.008 185.081 128.172C185.228 128.33 185.485 128.409 185.854 128.409C186.101 128.409 186.35 128.38 186.602 128.321V129.974C186.115 130.108 185.646 130.176 185.195 130.176C183.555 130.176 182.734 129.271 182.734 127.46V122.072H181.17V120.49H182.734V118.179H184.87ZM193.949 129.068C193.322 129.807 192.432 130.176 191.277 130.176C190.246 130.176 189.464 129.874 188.931 129.271C188.403 128.667 188.14 127.794 188.14 126.651V120.49H190.275V126.625C190.275 127.832 190.776 128.436 191.778 128.436C192.815 128.436 193.516 128.063 193.879 127.319V120.49H196.015V130H194.002L193.949 129.068ZM197.79 125.175C197.79 123.71 198.13 122.535 198.81 121.65C199.489 120.76 200.4 120.314 201.543 120.314C202.551 120.314 203.365 120.666 203.986 121.369V116.5H206.122V130H204.188L204.083 129.016C203.444 129.789 202.592 130.176 201.525 130.176C200.412 130.176 199.51 129.728 198.818 128.831C198.133 127.935 197.79 126.716 197.79 125.175ZM199.926 125.359C199.926 126.326 200.11 127.082 200.479 127.627C200.854 128.166 201.385 128.436 202.07 128.436C202.943 128.436 203.582 128.046 203.986 127.267V123.206C203.594 122.444 202.961 122.063 202.088 122.063C201.396 122.063 200.863 122.339 200.488 122.89C200.113 123.435 199.926 124.258 199.926 125.359ZM210.622 130H208.486V120.49H210.622V130ZM208.354 118.021C208.354 117.692 208.457 117.42 208.662 117.203C208.873 116.986 209.172 116.878 209.559 116.878C209.945 116.878 210.244 116.986 210.455 117.203C210.666 117.42 210.771 117.692 210.771 118.021C210.771 118.343 210.666 118.612 210.455 118.829C210.244 119.04 209.945 119.146 209.559 119.146C209.172 119.146 208.873 119.04 208.662 118.829C208.457 118.612 208.354 118.343 208.354 118.021ZM217.144 130.176C215.79 130.176 214.691 129.751 213.848 128.901C213.01 128.046 212.591 126.909 212.591 125.491V125.228C212.591 124.278 212.772 123.432 213.136 122.688C213.505 121.938 214.021 121.354 214.683 120.938C215.345 120.522 216.083 120.314 216.897 120.314C218.192 120.314 219.191 120.728 219.895 121.554C220.604 122.38 220.958 123.549 220.958 125.061V125.922H214.744C214.809 126.707 215.069 127.328 215.526 127.785C215.989 128.242 216.569 128.471 217.267 128.471C218.245 128.471 219.042 128.075 219.657 127.284L220.809 128.383C220.428 128.951 219.918 129.394 219.279 129.71C218.646 130.021 217.935 130.176 217.144 130.176ZM216.889 122.028C216.303 122.028 215.828 122.233 215.465 122.644C215.107 123.054 214.879 123.625 214.779 124.357H218.849V124.199C218.802 123.484 218.611 122.945 218.277 122.582C217.943 122.213 217.48 122.028 216.889 122.028ZM227.954 127.416C227.954 127.035 227.796 126.745 227.479 126.546C227.169 126.347 226.65 126.171 225.924 126.019C225.197 125.866 224.591 125.673 224.104 125.438C223.038 124.923 222.505 124.176 222.505 123.197C222.505 122.377 222.851 121.691 223.542 121.141C224.233 120.59 225.112 120.314 226.179 120.314C227.315 120.314 228.232 120.596 228.93 121.158C229.633 121.721 229.984 122.45 229.984 123.347H227.849C227.849 122.937 227.696 122.597 227.392 122.327C227.087 122.052 226.683 121.914 226.179 121.914C225.71 121.914 225.326 122.022 225.027 122.239C224.734 122.456 224.588 122.746 224.588 123.109C224.588 123.438 224.726 123.692 225.001 123.874C225.276 124.056 225.833 124.24 226.671 124.428C227.509 124.609 228.165 124.829 228.64 125.087C229.12 125.339 229.475 125.644 229.703 126.001C229.938 126.358 230.055 126.792 230.055 127.302C230.055 128.157 229.7 128.852 228.991 129.385C228.282 129.912 227.354 130.176 226.205 130.176C225.426 130.176 224.731 130.035 224.122 129.754C223.513 129.473 223.038 129.086 222.698 128.594C222.358 128.102 222.188 127.571 222.188 127.003H224.263C224.292 127.507 224.482 127.896 224.834 128.172C225.186 128.441 225.651 128.576 226.231 128.576C226.794 128.576 227.222 128.471 227.515 128.26C227.808 128.043 227.954 127.762 227.954 127.416Z" fill="#191970"/>
</svg>
