<svg width="214" height="70" viewBox="0 0 214 70" fill="none" xmlns="http://www.w3.org/2000/svg">
<path d="M70.011 0.551819H0.906158V69.6566H70.011V0.551819Z" fill="#ED1C24"/>
<path d="M48.9855 25.5186L48.8206 25.4911L38.1089 55.0993H32.7256L22.0688 25.601L21.904 25.6285L22.673 43.1792V49.4689L26.9576 50.2928V55.0993H10.396V50.2928L14.6532 49.4689V20.7671L10.396 19.9431V15.1091H14.6532H25.1176L35.3075 44.5799H35.4723L45.7446 15.1091H60.5212V19.9431L56.2365 20.7671V49.4689L60.5212 50.2928V55.0993H43.9593V50.2928L48.2165 49.4689V43.1792L48.9855 25.5186Z" fill="white"/>
<path d="M141.681 0.551819H72.5772V69.6566H141.681V0.551819Z" fill="#EFD712"/>
<path d="M109.244 15.1091C113.821 15.1091 117.433 16.2858 120.079 18.6384C122.725 20.9914 124.048 24.0723 124.048 27.8806C124.048 31.7078 122.725 34.784 120.079 37.1091C117.433 39.4346 113.821 40.5973 109.244 40.5973H102.487V49.4688L106.772 50.2927V55.0992H90.2102V50.2927L94.4673 49.4688V20.7669L90.2102 19.943V15.109H94.4673H109.244V15.1091ZM102.487 34.4176H109.244C111.478 34.4176 113.167 33.809 114.311 32.5911C115.456 31.3736 116.028 29.8217 116.028 27.9357C116.028 26.013 115.456 24.4247 114.311 23.1703C113.167 21.9163 111.478 21.2889 109.244 21.2889H102.487V34.4176Z" fill="white"/>
<path d="M213.091 0.551819H143.987V69.6566H213.091V0.551819Z" fill="#229F48"/>
<path d="M192.876 27.8669H186.861L185.817 22.3737C185.121 21.9342 184.105 21.5497 182.769 21.2202C181.432 20.8906 180.013 20.7258 178.512 20.7258C176.314 20.7258 174.616 21.1884 173.417 22.1128C172.217 23.0376 171.618 24.2323 171.618 25.697C171.618 27.0522 172.245 28.1646 173.499 29.0341C174.753 29.904 176.919 30.8241 179.995 31.7944C184.407 33.0213 187.754 34.6418 190.034 36.6559C192.313 38.6703 193.453 41.316 193.453 44.5935C193.453 48.0177 192.098 50.7183 189.388 52.696C186.678 54.6736 183.107 55.6622 178.676 55.6622C175.508 55.6622 172.648 55.1585 170.093 54.1516C167.539 53.1447 165.41 51.753 163.707 49.9767V41.6271H169.915L170.766 47.3125C171.572 47.9717 172.666 48.5167 174.048 48.9467C175.431 49.3772 176.973 49.5922 178.676 49.5922C180.874 49.5922 182.544 49.1437 183.689 48.2463C184.833 47.3493 185.406 46.1499 185.406 44.6483C185.406 43.1101 184.86 41.8742 183.771 40.9404C182.682 40.0065 180.773 39.1276 178.045 38.3036C173.302 36.9303 169.713 35.3008 167.278 33.4147C164.843 31.529 163.625 28.9471 163.625 25.6694C163.625 22.4284 164.998 19.778 167.745 17.7181C170.492 15.6582 173.943 14.6008 178.1 14.5458C181.176 14.5458 183.977 15.0128 186.504 15.9466C189.031 16.8805 191.155 18.1258 192.876 19.682V27.8669H192.876Z" fill="white"/>
</svg>
