<svg width="52" height="17" viewBox="0 0 52 17" fill="none" xmlns="http://www.w3.org/2000/svg">
<path d="M16.9355 0H0V16.9355H16.9355V0Z" fill="#ED1C24"/>
<path d="M11.7828 6.11858L11.7424 6.11185L9.11726 13.3679H7.79797L5.18632 6.13878L5.14593 6.14552L5.33439 10.4466V11.9881L6.38442 12.19V13.3679H2.32568V12.19L3.36898 11.9881V4.95412L2.32568 4.7522V3.56754H3.36898H5.9335L8.43071 10.7899H8.47111L10.9885 3.56754H14.6098V4.7522L13.5598 4.95412V11.9881L14.6098 12.19V13.3679H10.551V12.19L11.5943 11.9881V10.4466L11.7828 6.11858Z" fill="white"/>
<path d="M34.4997 0H17.5645V16.9355H34.4997V0Z" fill="#EFD712"/>
<path d="M26.5502 3.56754C27.672 3.56754 28.5571 3.85591 29.2056 4.43246C29.854 5.0091 30.1782 5.76413 30.1782 6.69743C30.1782 7.63537 29.854 8.38924 29.2056 8.95906C28.5571 9.52897 27.672 9.8139 26.5502 9.8139H24.8943V11.988L25.9444 12.1899V13.3679H21.8856V12.1899L22.9289 11.988V4.95409L21.8856 4.75217V3.5675H22.9289H26.5502V3.56754ZM24.8944 8.29944H26.5502C27.0976 8.29944 27.5116 8.1503 27.7921 7.85184C28.0725 7.55345 28.2128 7.17315 28.2128 6.71093C28.2128 6.23975 28.0725 5.85051 27.7921 5.54309C27.5116 5.23576 27.0976 5.08202 26.5502 5.08202H24.8944V8.29944Z" fill="white"/>
<path d="M52 0H35.0646V16.9355H52V0Z" fill="#229F48"/>
<path d="M47.0459 6.69409H45.5718L45.316 5.34787C45.1454 5.24018 44.8964 5.14595 44.5688 5.06518C44.2412 4.98442 43.8934 4.94402 43.5255 4.94402C42.9871 4.94402 42.5708 5.0574 42.2769 5.28392C41.983 5.51058 41.8361 5.80336 41.8361 6.16231C41.8361 6.49443 41.9897 6.76704 42.2971 6.98013C42.6045 7.19333 43.1351 7.4188 43.889 7.6566C44.9704 7.95728 45.7905 8.3544 46.3492 8.84799C46.9079 9.34167 47.1872 9.99005 47.1872 10.7933C47.1872 11.6324 46.8551 12.2943 46.191 12.7789C45.5269 13.2636 44.6519 13.5059 43.5659 13.5059C42.7896 13.5059 42.0885 13.3824 41.4625 13.1356C40.8365 12.8889 40.3148 12.5478 39.8975 12.1125V10.0663H41.4187L41.6274 11.4596C41.8248 11.6212 42.0929 11.7547 42.4318 11.8601C42.7705 11.9656 43.1486 12.0183 43.5659 12.0183C44.1044 12.0183 44.5139 11.9084 44.7943 11.6885C45.0747 11.4686 45.215 11.1747 45.215 10.8067C45.215 10.4297 45.0815 10.1268 44.8145 9.89799C44.5475 9.66913 44.0797 9.45374 43.4111 9.25181C42.2489 8.91526 41.3693 8.5159 40.7726 8.05368C40.1757 7.59156 39.8773 6.95882 39.8773 6.15555C39.8773 5.36127 40.2139 4.71175 40.887 4.20693C41.5601 3.70211 42.4059 3.44297 43.4246 3.4295C44.1784 3.4295 44.865 3.54393 45.4843 3.77279C46.1035 4.00165 46.624 4.30684 47.0459 4.68823V6.69409H47.0459Z" fill="white"/>
</svg>
