<svg width="86" height="28" viewBox="0 0 86 28" fill="none" xmlns="http://www.w3.org/2000/svg">
<path d="M28.2044 0.220703H0.5625V27.8626H28.2044V0.220703Z" fill="#ED1C24"/>
<path d="M19.7942 10.2074L19.7282 10.1965L15.4436 22.0397H13.2902L9.02751 10.2404L8.96158 10.2514L9.26918 17.2717V19.7875L10.983 20.1171V22.0397H4.3584V20.1171L6.06126 19.7875V8.30682L4.3584 7.97723V6.04364H6.06126H10.247L14.323 17.832H14.3889L18.4978 6.04364H24.4085V7.97723L22.6946 8.30682V19.7875L24.4085 20.1171V22.0397H17.7837V20.1171L19.4866 19.7875V17.2717L19.7942 10.2074Z" fill="white"/>
<path d="M56.872 0.220703H29.2305V27.8626H56.872V0.220703Z" fill="#EFD712"/>
<path d="M43.8976 6.04363C45.7286 6.04363 47.1733 6.51431 48.2318 7.45535C49.29 8.39655 49.8193 9.62889 49.8193 11.1522C49.8193 12.6831 49.29 13.9136 48.2318 14.8436C47.1733 15.7738 45.7286 16.2389 43.8976 16.2389H41.195V19.7875L42.9089 20.1171V22.0397H36.2842V20.1171L37.987 19.7875V8.30676L36.2842 7.97717V6.04358H37.987H43.8976V6.04363ZM41.1951 13.767H43.8977C44.7912 13.767 45.4669 13.5236 45.9247 13.0364C46.3823 12.5494 46.6113 11.9287 46.6113 11.1743C46.6113 10.4052 46.3824 9.76988 45.9247 9.26811C45.4669 8.76649 44.7912 8.51556 43.8977 8.51556H41.1951V13.767Z" fill="white"/>
<path d="M85.4368 0.220703H57.7949V27.8626H85.4368V0.220703Z" fill="#229F48"/>
<path d="M77.3508 11.1467H74.9448L74.5273 8.94945C74.2489 8.77366 73.8424 8.61986 73.3078 8.48804C72.7731 8.35622 72.2055 8.29028 71.605 8.29028C70.7261 8.29028 70.0466 8.47533 69.567 8.84507C69.0872 9.21502 68.8474 9.69288 68.8474 10.2788C68.8474 10.8209 69.0982 11.2658 69.6 11.6136C70.1016 11.9616 70.9678 12.3296 72.1983 12.7177C73.9633 13.2085 75.3019 13.8567 76.2138 14.6623C77.1257 15.4681 77.5816 16.5264 77.5816 17.8374C77.5816 19.207 77.0395 20.2873 75.9556 21.0784C74.8716 21.8694 73.4434 22.2649 71.6709 22.2649C70.4037 22.2649 69.2594 22.0634 68.2377 21.6606C67.216 21.2578 66.3645 20.7012 65.6834 19.9906V16.6508H68.1663L68.5069 18.925C68.8291 19.1887 69.2666 19.4066 69.8197 19.5787C70.3726 19.7509 70.9898 19.8368 71.6709 19.8368C72.5498 19.8368 73.2181 19.6575 73.6759 19.2985C74.1336 18.9397 74.3626 18.4599 74.3626 17.8593C74.3626 17.244 74.1446 16.7497 73.7089 16.3761C73.2731 16.0026 72.5095 15.651 71.4183 15.3214C69.5212 14.7721 68.0857 14.1203 67.1116 13.3659C66.1374 12.6116 65.6504 11.5788 65.6504 10.2677C65.6504 8.97132 66.1997 7.91116 67.2984 7.08721C68.397 6.26325 69.7775 5.84028 71.4402 5.8183C72.6707 5.8183 73.7913 6.00507 74.802 6.37861C75.8127 6.75215 76.6623 7.25028 77.3509 7.87278V11.1467H77.3508Z" fill="white"/>
</svg>
