<svg width="15" height="15" viewBox="0 0 15 15" fill="none" xmlns="http://www.w3.org/2000/svg">
<path fill-rule="evenodd" clip-rule="evenodd" d="M10.7425 9.67859C11.6777 8.47285 12.1185 6.95611 11.9751 5.43693C11.8317 3.91776 11.115 2.51026 9.9707 1.50078C8.8264 0.491302 7.34051 -0.0443224 5.81531 0.00287369C4.29011 0.0500698 2.84018 0.676541 1.76048 1.75484C0.679851 2.83388 0.0513315 4.28438 0.00300761 5.81074C-0.0453163 7.33709 0.490193 8.82444 1.50041 9.96968C2.51062 11.1149 3.91951 11.8319 5.43996 11.9744C6.96042 12.1169 8.47801 11.6744 9.68348 10.7368L9.71573 10.7706L12.8972 13.9528C12.9669 14.0225 13.0496 14.0778 13.1407 14.1155C13.2317 14.1532 13.3293 14.1726 13.4279 14.1726C13.5264 14.1726 13.624 14.1532 13.715 14.1155C13.8061 14.0778 13.8888 14.0225 13.9585 13.9528C14.0282 13.8832 14.0834 13.8004 14.1212 13.7094C14.1589 13.6183 14.1783 13.5208 14.1783 13.4222C14.1783 13.3237 14.1589 13.2261 14.1212 13.135C14.0834 13.044 14.0282 12.9613 13.9585 12.8916L10.7762 9.71009C10.7653 9.69928 10.754 9.68878 10.7425 9.67859ZM9.18548 2.81609C9.60894 3.2327 9.94571 3.72902 10.1764 4.27644C10.4071 4.82385 10.5271 5.41153 10.5295 6.00555C10.5319 6.59958 10.4167 7.18821 10.1905 7.73748C9.96427 8.28676 9.63155 8.78581 9.2115 9.20586C8.79146 9.6259 8.29241 9.95862 7.74313 10.1848C7.19385 10.411 6.60523 10.5263 6.0112 10.5238C5.41717 10.5214 4.8295 10.4014 4.28209 10.1707C3.73467 9.94006 3.23834 9.60329 2.82173 9.17984C1.98917 8.3336 1.52473 7.19267 1.52956 6.00555C1.53439 4.81844 2.00812 3.68132 2.84754 2.8419C3.68697 2.00247 4.82408 1.52875 6.0112 1.52391C7.19831 1.51908 8.33925 1.98353 9.18548 2.81609Z" fill="white"/>
</svg>
