<svg width="20" height="20" viewBox="0 0 20 20" fill="none" xmlns="http://www.w3.org/2000/svg">
<path d="M15.2945 13.3333C14.9203 13.3348 14.5503 13.4118 14.2066 13.5597C13.8629 13.7077 13.5527 13.9236 13.2945 14.1944L6.52226 10.8056C6.68885 10.3004 6.68885 9.75514 6.52226 9.25L13.3056 5.8C13.7915 6.31202 14.4504 6.62509 15.1542 6.67837C15.858 6.73164 16.5566 6.52132 17.114 6.08828C17.6714 5.65523 18.0479 5.0304 18.1703 4.33524C18.2926 3.64007 18.1522 2.92423 17.7762 2.32685C17.4002 1.72948 16.8155 1.29324 16.1358 1.10293C15.4561 0.912618 14.7299 0.981833 14.0984 1.29712C13.4668 1.61241 12.9751 2.15124 12.7187 2.8089C12.4623 3.46655 12.4596 4.19603 12.7111 4.85556L5.99448 8.27223C5.63173 7.82858 5.14065 7.508 4.58855 7.35441C4.03645 7.20082 3.45035 7.22174 2.91061 7.41432C2.37087 7.60689 1.9039 7.96169 1.57371 8.43007C1.24353 8.89845 1.06628 9.45749 1.06628 10.0306C1.06628 10.6036 1.24353 11.1627 1.57371 11.631C1.9039 12.0994 2.37087 12.4542 2.91061 12.6468C3.45035 12.8394 4.03645 12.8603 4.58855 12.7067C5.14065 12.5531 5.63173 12.2325 5.99448 11.7889L12.6945 15.1611C12.5813 15.4651 12.523 15.7867 12.5223 16.1111C12.5223 16.6605 12.6852 17.1976 12.9904 17.6544C13.2956 18.1112 13.7295 18.4672 14.237 18.6774C14.7446 18.8877 15.3031 18.9427 15.842 18.8355C16.3808 18.7283 16.8757 18.4638 17.2642 18.0753C17.6527 17.6868 17.9173 17.1919 18.0244 16.653C18.1316 16.1142 18.0766 15.5557 17.8664 15.0481C17.6561 14.5405 17.3001 14.1067 16.8433 13.8015C16.3865 13.4962 15.8494 13.3333 15.3 13.3333H15.2945Z" fill="#1E9E05"/>
</svg>
