<svg width="16" height="16" viewBox="0 0 16 16" fill="none" xmlns="http://www.w3.org/2000/svg">
<path d="M12.2356 10.6667C11.9362 10.6678 11.6402 10.7294 11.3653 10.8478C11.0903 10.9662 10.8421 11.1389 10.6356 11.3556L5.21781 8.64444C5.35108 8.24033 5.35108 7.80411 5.21781 7.4L10.6445 4.64C11.0332 5.04961 11.5603 5.30007 12.1234 5.34269C12.6864 5.38531 13.2452 5.21705 13.6912 4.87062C14.1371 4.52418 14.4383 4.02432 14.5362 3.46819C14.6341 2.91206 14.5218 2.33938 14.221 1.86148C13.9202 1.38358 13.4524 1.03459 12.9086 0.88234C12.3649 0.730092 11.7839 0.785464 11.2787 1.03769C10.7735 1.28992 10.3801 1.72099 10.175 2.24711C9.96987 2.77323 9.96771 3.35682 10.1689 3.88444L4.79559 6.61778C4.50539 6.26287 4.11252 6.00639 3.67084 5.88352C3.22916 5.76065 2.76028 5.77739 2.32849 5.93145C1.8967 6.08551 1.52312 6.36935 1.25897 6.74405C0.994821 7.11876 0.853027 7.56599 0.853027 8.02444C0.853027 8.4829 0.994821 8.93013 1.25897 9.30484C1.52312 9.67954 1.8967 9.96338 2.32849 10.1174C2.76028 10.2715 3.22916 10.2882 3.67084 10.1654C4.11252 10.0425 4.50539 9.78602 4.79559 9.43111L10.1556 12.1289C10.065 12.3721 10.0184 12.6294 10.0178 12.8889C10.0178 13.3284 10.1481 13.758 10.3923 14.1235C10.6365 14.4889 10.9836 14.7738 11.3896 14.942C11.7957 15.1101 12.2425 15.1542 12.6736 15.0684C13.1046 14.9827 13.5006 14.771 13.8114 14.4602C14.1222 14.1495 14.3338 13.7535 14.4196 13.3224C14.5053 12.8914 14.4613 12.4445 14.2931 12.0385C14.1249 11.6324 13.8401 11.2854 13.4746 11.0412C13.1092 10.797 12.6795 10.6667 12.24 10.6667H12.2356Z" fill="white"/>
</svg>
