<svg width="16" height="16" viewBox="0 0 16 16" fill="none" xmlns="http://www.w3.org/2000/svg">
<path d="M7.66667 1.33334C4.54 1.33334 2 3.87334 2 7C2 10.1267 4.54 12.6667 7.66667 12.6667H8V14.6667C11.24 13.1067 13.3333 10 13.3333 7C13.3333 3.87334 10.7933 1.33334 7.66667 1.33334ZM8.33333 11H7V9.66667H8.33333V11ZM8.33333 8.66667H7C7 6.5 9 6.66667 9 5.33334C9 4.6 8.4 4 7.66667 4C6.93333 4 6.33333 4.6 6.33333 5.33334H5C5 3.86 6.19333 2.66667 7.66667 2.66667C9.14 2.66667 10.3333 3.86 10.3333 5.33334C10.3333 7 8.33333 7.16667 8.33333 8.66667Z" fill="white"/>
</svg>
