<svg width="16" height="16" viewBox="0 0 16 16" fill="none" xmlns="http://www.w3.org/2000/svg">
<g clip-path="url(#clip0)">
<path d="M5.10213 12.7421C5.01166 12.7355 4.92059 12.7322 4.829 12.7322H1.64772H1.17897V3.57016H0V13.9011H7.52747L7.42166 13.7966C6.79178 13.1746 5.97653 12.8058 5.10213 12.7421Z" fill="white"/>
<path d="M4.82899 2.09888H2.11646V11.7947H4.82902C5.81167 11.7947 6.74892 12.0999 7.53127 12.6649V3.27156L7.42167 3.16331C6.72661 2.47694 5.80586 2.09888 4.82899 2.09888ZM5.9038 9.60135H3.74389V8.66385H5.9038V9.60135ZM5.9038 7.49294H3.74389V6.55544H5.9038V7.49294ZM5.9038 5.38453H3.74389V4.44703H5.9038V5.38453Z" fill="white"/>
<path d="M13.8835 11.7947V2.09888H11.171C10.1941 2.09888 9.27334 2.47694 8.57828 3.16335L8.46875 3.27156V12.6649C9.25109 12.0999 10.1883 11.7946 11.171 11.7946H13.8835V11.7947ZM10.0962 4.44703H12.2561V5.38453H10.0962V4.44703ZM10.0962 6.55544H12.2561V7.49294H10.0962V6.55544ZM10.0962 8.66385H12.2561V9.60135H10.0962V8.66385Z" fill="white"/>
<path d="M14.821 3.57016V12.7322H11.171C10.1941 12.7322 9.27338 13.1102 8.57832 13.7966L8.47253 13.9011H16V3.57016H14.821Z" fill="white"/>
</g>
<defs>
<clipPath id="clip0">
<rect width="16" height="16" fill="white"/>
</clipPath>
</defs>
</svg>
