<svg width="20" height="20" viewBox="0 0 20 20" fill="none" xmlns="http://www.w3.org/2000/svg">
<path d="M9.16665 3.34083C9.16665 3.11982 9.25445 2.90786 9.41073 2.75158C9.56701 2.5953 9.77897 2.5075 9.99998 2.5075C10.221 2.5075 10.433 2.5953 10.5892 2.75158C10.7455 2.90786 10.8333 3.11982 10.8333 3.34083L10.8358 10.01C10.8358 10.231 10.748 10.443 10.5917 10.5993C10.4355 10.7555 10.2235 10.8433 10.0025 10.8433C9.78147 10.8433 9.56951 10.7555 9.41323 10.5993C9.25695 10.443 9.16915 10.231 9.16915 10.01L9.16665 3.34166V3.34083Z" fill="white"/>
<path d="M16.6666 10.8267C16.6666 8.985 15.9208 7.31833 14.7141 6.1125L13.5358 7.29083C14.2351 7.99008 14.7113 8.88099 14.9043 9.85091C15.0972 10.8208 14.9982 11.8262 14.6198 12.7398C14.2414 13.6535 13.6005 14.4344 12.7783 14.9838C11.956 15.5332 10.9893 15.8265 10.0004 15.8265C9.01146 15.8265 8.04474 15.5332 7.22249 14.9838C6.40024 14.4344 5.75938 13.6535 5.38095 12.7398C5.00252 11.8262 4.90352 10.8208 5.09648 9.85091C5.28943 8.88099 5.76567 7.99008 6.46496 7.29083L5.2858 6.1125C4.5106 6.88773 3.93855 7.84218 3.62032 8.8913C3.3021 9.94043 3.24751 11.0518 3.46141 12.1271C3.6753 13.2023 4.15107 14.2083 4.84657 15.0557C5.54207 15.9032 6.43584 16.5661 7.4487 16.9856C8.46157 17.4052 9.56228 17.5684 10.6533 17.461C11.7444 17.3536 12.7921 16.9787 13.7036 16.3696C14.6152 15.7606 15.3625 14.9361 15.8793 13.9692C16.3962 13.0024 16.6666 11.923 16.6666 10.8267Z" fill="white"/>
</svg>
