<svg width="16" height="16" viewBox="0 0 16 16" fill="none" xmlns="http://www.w3.org/2000/svg">
<path d="M14.6667 8.44444C14.6082 8.44478 14.5502 8.43356 14.4961 8.41145C14.4419 8.38933 14.3927 8.35674 14.3512 8.31555L8.00005 1.95999L1.64894 8.31555C1.56392 8.38836 1.45455 8.42641 1.3427 8.42209C1.23084 8.41777 1.12473 8.3714 1.04558 8.29224C0.966427 8.21309 0.920057 8.10698 0.915737 7.99513C0.911416 7.88327 0.949463 7.7739 1.02228 7.68888L7.68894 1.02222C7.77221 0.939438 7.88486 0.892975 8.00227 0.892975C8.11969 0.892975 8.23234 0.939438 8.31561 1.02222L14.9823 7.68888C15.0434 7.75127 15.0848 7.83031 15.1013 7.91611C15.1178 8.0019 15.1087 8.09066 15.075 8.17128C15.0413 8.2519 14.9846 8.32081 14.912 8.36939C14.8394 8.41797 14.7541 8.44408 14.6667 8.44444Z" fill="#FF9912"/>
<path d="M7.99996 3.46222L2.66663 8.81333V14.2222C2.66663 14.458 2.76028 14.6841 2.92698 14.8508C3.09367 15.0175 3.31977 15.1111 3.55551 15.1111H6.66663V10.6667H9.33329V15.1111H12.4444C12.6802 15.1111 12.9062 15.0175 13.0729 14.8508C13.2396 14.6841 13.3333 14.458 13.3333 14.2222V8.78222L7.99996 3.46222Z" fill="#FF9912"/>
</svg>
