<svg width="18" height="18" viewBox="0 0 18 18" fill="none" xmlns="http://www.w3.org/2000/svg">
<path d="M14.355 9.705C14.385 9.48 14.4 9.2475 14.4 9C14.4 8.76 14.385 8.52001 14.3475 8.29501L15.87 7.11C15.9356 7.05593 15.9804 6.98078 15.9968 6.89736C16.0132 6.81393 16.0002 6.7274 15.96 6.6525L14.52 4.16251C14.4776 4.08718 14.4099 4.02929 14.3289 3.99909C14.2479 3.96889 14.1588 3.96833 14.0775 3.9975L12.285 4.7175C11.91 4.4325 11.5125 4.1925 11.07 4.0125L10.8 2.10751C10.7867 2.02165 10.7431 1.94341 10.677 1.88699C10.6109 1.83056 10.5268 1.7997 10.44 1.80001H7.55997C7.37997 1.80001 7.23747 1.92751 7.20747 2.10751L6.93747 4.0125C6.49497 4.1925 6.08997 4.44 5.72247 4.7175L3.92997 3.9975C3.76497 3.93751 3.57747 3.99751 3.48747 4.16251L2.05497 6.6525C1.96497 6.81 1.99497 7.005 2.14497 7.11L3.66747 8.29501C3.62997 8.52001 3.59997 8.7675 3.59997 9C3.59997 9.2325 3.61497 9.48 3.65247 9.705L2.12997 10.89C2.06437 10.9441 2.01954 11.0192 2.00313 11.1027C1.98672 11.1861 1.99974 11.2726 2.03997 11.3475L3.47997 13.8375C3.56997 14.0025 3.75747 14.055 3.92247 14.0025L5.71497 13.2825C6.08997 13.5675 6.48747 13.8075 6.92997 13.9875L7.19997 15.8925C7.23747 16.0725 7.37997 16.2 7.55997 16.2H10.44C10.62 16.2 10.77 16.0725 10.7925 15.8925L11.0625 13.9875C11.505 13.8075 11.91 13.5675 12.2775 13.2825L14.07 14.0025C14.235 14.0625 14.4225 14.0025 14.5125 13.8375L15.9525 11.3475C16.0425 11.1825 16.005 10.995 15.8625 10.89L14.355 9.705ZM8.99997 11.7C7.51497 11.7 6.29997 10.485 6.29997 9C6.29997 7.51501 7.51497 6.3 8.99997 6.3C10.485 6.3 11.7 7.51501 11.7 9C11.7 10.485 10.485 11.7 8.99997 11.7Z" fill="white"/>
</svg>
