<svg width="18" height="18" viewBox="0 0 18 18" fill="none" xmlns="http://www.w3.org/2000/svg">
<g clip-path="url(#clip0)">
<path d="M5.73989 14.3348C5.63811 14.3274 5.53567 14.3237 5.43262 14.3237H1.85368H1.32634V4.01645H0V15.6388H8.4684L8.34936 15.5212C7.64075 14.8214 6.7236 14.4065 5.73989 14.3348Z" fill="white"/>
<path d="M5.43258 2.36124H2.38098V13.269H5.43261C6.5381 13.269 7.59251 13.6124 8.47265 14.2481V3.68051L8.34935 3.55873C7.56741 2.78656 6.53156 2.36124 5.43258 2.36124ZM6.64174 10.8015H4.21185V9.74683H6.64174V10.8015ZM6.64174 8.42956H4.21185V7.37487H6.64174V8.42956ZM6.64174 6.0576H4.21185V5.00291H6.64174V6.0576Z" fill="white"/>
<path d="M15.619 13.269V2.36124H12.5673C11.4684 2.36124 10.4325 2.78656 9.65057 3.55876L9.52734 3.68051V14.248C10.4075 13.6124 11.4619 13.269 12.5674 13.269H15.619V13.269ZM11.3582 5.00291H13.7881V6.0576H11.3582V5.00291ZM11.3582 7.37487H13.7881V8.42956H11.3582V7.37487ZM11.3582 9.74683H13.7881V10.8015H11.3582V9.74683Z" fill="white"/>
<path d="M16.6737 4.01645V14.3237H12.5674C11.4684 14.3237 10.4326 14.749 9.65062 15.5212L9.53162 15.6388H18V4.01645H16.6737Z" fill="white"/>
</g>
<defs>
<clipPath id="clip0">
<rect width="18" height="18" fill="white"/>
</clipPath>
</defs>
</svg>
